<?xml version="1.0" encoding="utf-8"?>
<!-- Generator: Adobe Illustrator 16.0.4, SVG Export Plug-In . SVG Version: 6.00 Build 0)  -->
<!DOCTYPE svg PUBLIC "-//W3C//DTD SVG 1.1//EN" "http://www.w3.org/Graphics/SVG/1.1/DTD/svg11.dtd">
<svg version="1.1" id="Layer_1" xmlns="http://www.w3.org/2000/svg" xmlns:xlink="http://www.w3.org/1999/xlink" x="0px" y="0px"
	 width="400px" height="400px" viewBox="280 80 400 400" enable-background="new 280 80 400 400" xml:space="preserve">
<g>
	<path fill="#D99054" d="M668.721,170.486l-94.36-20.246c-0.456,0-0.456,0-0.912,0s-0.456,0-0.911,0l-92.993,20.246L386.096,150.7
		c-0.456,0-0.456,0-0.913,0c-0.456,0-0.456,0-0.911,0l-93.904,19.786c-2.279,0.46-3.647,2.301-3.647,4.602v230.07
		c0,1.38,0.456,2.761,1.823,3.682c0.911,0.46,1.824,0.92,2.735,0.92c0.456,0,0.456,0,0.912,0l93.449-19.785l93.449,19.785
		c0.456,0,0.456,0,0.911,0c0.456,0,0.456,0,0.911,0l93.45-19.785l93.449,19.785c0.455,0,0.455,0,0.911,0
		c0.911,0,2.279-0.46,2.735-0.92c0.911-0.921,1.823-2.302,1.823-3.682v-230.07C672.367,172.787,671,170.946,668.721,170.486z
		 M295.837,178.769l84.788-18.405V381.23l-84.788,18.405V178.769z M389.742,160.363l85.244,18.405v220.867l-85.244-18.405V160.363z
		 M484.103,178.769l85.243-18.405V381.23l-85.243,18.405V178.769z M663.25,399.636l-84.787-18.405V160.363l84.787,18.405V399.636z"
		/>
	<path fill="#D99054" d="M408.888,284.142l-3.647,2.761c-1.823,1.381-2.279,4.602-0.911,6.44c0.911,1.382,2.279,1.842,3.647,1.842
		c0.911,0,1.823-0.46,2.734-0.92l3.647-2.761c1.824-1.381,2.278-4.602,0.912-6.442C413.902,283.221,411.167,282.76,408.888,284.142z
		"/>
	<path fill="#D99054" d="M458.575,284.142c-1.824-1.382-5.015-0.921-6.382,0.92c-1.368,1.841-0.912,5.062,0.911,6.442l3.647,2.761
		c0.912,0.46,1.824,0.92,2.736,0.92c1.367,0,2.734-0.46,3.646-1.842c1.368-1.839,0.912-5.06-0.912-6.44L458.575,284.142z"/>
	<path fill="#D99054" d="M363.303,284.142c-1.824-1.382-5.015-0.921-6.383,0.92c-1.367,1.841-0.911,5.062,0.912,6.442l3.647,2.761
		c0.912,0.46,1.824,0.92,2.735,0.92c1.368,0,2.736-0.46,3.647-1.842c1.367-1.839,0.912-5.06-0.911-6.44L363.303,284.142z"/>
	<path fill="#D99054" d="M599.432,295.645c0.913,0,1.823-0.46,2.735-0.92l3.646-2.761c1.824-1.381,2.279-4.602,0.912-6.442
		c-1.368-1.84-4.559-2.301-6.381-0.92l-3.647,2.761c-1.825,1.38-2.279,4.602-0.913,6.441
		C596.697,294.725,598.063,295.645,599.432,295.645z"/>
	<path fill="#D99054" d="M436.239,275.398c-0.912,0-1.368,0-2.28,0c-0.912,0-1.823,0-2.279,0c-2.735,0-4.559,2.301-4.103,4.602
		c0,2.301,2.279,4.602,4.559,4.602c0,0,0,0,0.456,0s1.367,0,1.823,0c0.912,0,1.368,0,1.824,0c2.279,0,4.558-1.842,4.558-4.602
		C440.797,277.699,438.974,275.398,436.239,275.398z"/>
	<path fill="#D99054" d="M531.511,275.398c-0.456,0-1.368,0-1.824,0c-0.911,0-1.822,0-2.735,0c-2.734,0-4.559,2.301-4.102,5.062
		c0,2.3,2.279,4.142,4.559,4.142c0,0,0,0,0.456,0c0.911,0,1.368,0,2.278,0c0.455,0,1.368,0,1.823,0c2.735,0,4.56-1.842,4.56-4.602
		C536.069,277.699,534.245,275.398,531.511,275.398z"/>
	<path fill="#D99054" d="M554.303,283.682c-1.824-1.381-5.015-0.922-6.382,0.92c-1.368,1.84-0.911,5.061,0.912,6.441l3.646,2.761
		c0.913,0.461,1.824,0.921,2.736,0.921c1.367,0,2.734-0.46,3.646-1.841c1.368-1.841,0.911-5.062-0.912-6.442L554.303,283.682z"/>
	<path fill="#D99054" d="M504.615,284.602l-3.646,2.761c-1.822,1.38-2.279,4.602-0.911,6.441c0.911,1.381,2.279,1.841,3.646,1.841
		c0.911,0,1.823-0.46,2.735-0.92l3.646-2.761c1.823-1.381,2.279-4.602,0.911-6.442C509.174,283.221,506.439,282.76,504.615,284.602z
		"/>
	<ellipse fill="#D99054" cx="338.231" cy="280" rx="8.206" ry="8.283"/>
	<path fill="#D99054" d="M614.475,295.185c0.911,0.921,2.279,1.381,3.191,1.381c0.91,0,2.279-0.46,3.189-1.381l4.56-4.602
		l4.558,4.602c0.912,0.921,2.28,1.381,3.191,1.381c0.912,0,2.279-0.46,3.191-1.381c1.822-1.842,1.822-4.602,0-6.442l-4.56-4.601
		l4.56-4.602c1.822-1.841,1.822-4.602,0-6.442c-1.823-1.84-4.56-1.84-6.383,0l-4.558,4.602l-4.56-4.602
		c-1.823-1.84-4.558-1.84-6.381,0c-1.824,1.84-1.824,4.602,0,6.442l4.558,4.602l-4.558,4.601
		C612.65,290.583,612.65,293.343,614.475,295.185z"/>
</g>
</svg>
