<?xml version="1.0" encoding="utf-8"?>
<!-- Generator: Adobe Illustrator 16.0.4, SVG Export Plug-In . SVG Version: 6.00 Build 0)  -->
<!DOCTYPE svg PUBLIC "-//W3C//DTD SVG 1.1//EN" "http://www.w3.org/Graphics/SVG/1.1/DTD/svg11.dtd">
<svg version="1.1" id="Layer_1" xmlns="http://www.w3.org/2000/svg" xmlns:xlink="http://www.w3.org/1999/xlink" x="0px" y="0px"
	 width="400px" height="400px" viewBox="280 80 400 400" enable-background="new 280 80 400 400" xml:space="preserve">
<g>
	<path fill="#D99054" d="M523.68,230.16h-179.2c-3.36,0-5.6,2.24-5.6,5.6c0,3.36,2.24,5.6,5.6,5.6h179.2
		c3.36,0,5.601-2.24,5.601-5.6C529.28,232.4,526.48,230.16,523.68,230.16z"/>
	<path fill="#D99054" d="M548.88,230.16h-6.16c-3.359,0-5.6,2.24-5.6,5.6c0,3.36,2.24,5.6,5.6,5.6h6.16c3.36,0,5.601-2.24,5.601-5.6
		C554.48,232.4,551.68,230.16,548.88,230.16z"/>
	<path fill="#D99054" d="M650.8,339.92c0-43.68-31.92-80.08-75.04-86.24v-13.44c8.96-3.92,14.561-14,12.32-24.08
		c-1.68-10.64-11.2-18.48-22.4-18.48H332.16c-11.2,0-20.72,7.84-22.4,18.48c-1.68,10.08,3.36,20.16,12.32,24.08V431.2
		c0,22.96,19.04,42,42,42h170.24c22.96,0,42-19.04,42-42V425.6C618.88,420,650.8,383.6,650.8,339.92z M575.76,296.24
		c19.601,5.039,33.04,22.96,33.04,43.12c0,20.72-13.439,38.08-33.04,43.12V296.24z M564.56,237.44V431.2c0,16.8-14,30.8-30.8,30.8
		H363.52c-16.8,0-30.8-14-30.8-30.8V237.44c0-3.36-2.24-5.6-5.04-6.72c-4.48-1.12-8.96-6.16-7.84-12.88
		c1.12-5.04,5.6-8.96,11.76-8.96h234.08c5.601,0,10.641,3.92,11.761,8.96l0,0c1.119,6.16-2.801,11.2-7.841,12.88
		C566.8,231.28,564.56,234.08,564.56,237.44z M575.76,414.4V394.8c25.76-5.6,44.24-28,44.24-54.88s-18.48-49.279-44.24-54.88v-19.6
		c36.4,5.6,63.84,36.96,63.84,74.48C639.6,377.44,612.72,408.8,575.76,414.4z"/>
	<path fill="#D99054" d="M439.68,130.48c5.04,3.92,7.84,6.72,7.84,11.76c0,5.04-2.8,7.84-7.84,11.76
		c-1.68,1.12-3.359,2.8-4.479,3.92c-2.24,2.24-2.24,5.6,0,7.84c1.12,1.12,2.8,1.68,3.92,1.68c1.68,0,2.8-0.56,3.92-1.68
		c1.12-1.12,2.8-2.24,3.92-3.36c5.04-4.48,11.76-9.52,11.76-20.16c0-10.64-6.72-16.24-11.76-20.16s-7.84-6.72-7.84-11.76
		s2.8-7.84,7.84-11.76l2.24-1.68c2.24-2.24,2.8-5.6,0.56-7.84c-2.24-2.24-5.6-2.8-7.84-0.56l-1.68,1.68
		c-5.04,4.48-11.76,9.52-11.76,20.16C428.48,120.96,434.08,126.56,439.68,130.48z"/>
</g>
</svg>
