<?xml version="1.0" encoding="utf-8"?>
<!-- Generator: Adobe Illustrator 16.0.4, SVG Export Plug-In . SVG Version: 6.00 Build 0)  -->
<!DOCTYPE svg PUBLIC "-//W3C//DTD SVG 1.1//EN" "http://www.w3.org/Graphics/SVG/1.1/DTD/svg11.dtd">
<svg version="1.1" id="Layer_1" xmlns="http://www.w3.org/2000/svg" xmlns:xlink="http://www.w3.org/1999/xlink" x="0px" y="0px"
	 width="400px" height="400px" viewBox="280 80 400 400" enable-background="new 280 80 400 400" xml:space="preserve">
<g>
	<path fill="#D99054" d="M601.711,190.443v-47.302c0-16.477-11.693-30.826-28.17-34.016l-37.203-6.909
		c-7.973-1.595-16.477-2.657-24.449-3.721v0.531c-7.971-9.035-19.133-14.35-31.889-14.35c-12.756,0-23.917,5.314-31.358,14.35
		c-8.504,1.063-17.008,2.126-24.98,3.721l-37.204,6.909c-16.476,3.189-28.169,17.539-28.169,34.016v47.834
		c0,3.721,1.595,6.909,4.252,9.566c0.531,0.532,1.062,1.063,1.062,2.126c0,1.063-0.532,1.595-1.062,2.126
		c-2.658,2.657-4.252,5.847-4.252,9.567v73.876c0,3.721,1.595,6.91,4.252,9.567c1.062,1.063,1.062,3.188,0,4.252
		c-2.658,2.657-4.252,5.847-4.252,9.566v82.912c0,3.722,1.595,6.91,4.252,9.567c1.062,1.062,1.062,3.188,0,4.252
		c-2.658,2.657-4.252,5.847-4.252,9.566v36.673c0,11.161,9.035,20.197,20.197,20.197h203.028c11.162,0,20.197-9.036,20.197-20.197
		v-37.204c0-3.721-1.596-6.909-4.252-9.567c-1.062-1.062-1.062-3.188,0-4.251c2.656-2.657,4.252-5.847,4.252-9.567v-82.912
		c0-3.721-1.596-6.909-4.252-9.567c-1.062-1.062-1.062-3.188,0-4.251c2.656-2.657,4.252-5.847,4.252-9.566v-73.877
		c0-3.721-1.596-6.91-4.252-9.567c-0.531-0.531-1.062-1.062-1.062-2.126c0-1.062,0.531-1.595,1.062-2.126
		C600.115,197.885,601.711,194.164,601.711,190.443z M480,94.776c17.539,0,31.889,14.35,31.889,31.889s-14.35,31.89-31.889,31.89
		c-17.54,0-31.889-14.351-31.889-31.89S462.46,94.776,480,94.776z M451.831,158.022c7.441,6.378,17.008,10.63,28.169,10.63
		c10.629,0,20.729-4.252,28.168-10.63c13.82,6.378,25.512,17.009,32.422,30.296c-49.43,11.692-94.074,6.377-121.711,0.531
		C426.32,175.031,438.012,164.4,451.831,158.022z M591.082,190.443c0,0.532-0.531,1.595-1.064,2.127
		c-2.656,2.657-4.25,5.846-4.25,9.566s1.594,6.909,4.25,9.566c0.533,0.531,1.064,1.063,1.064,2.126v73.346
		c0,0.532-0.531,1.594-1.064,2.126c-5.314,5.314-5.314,13.819,0,19.665c0.533,0.531,1.064,1.062,1.064,2.126v82.381
		c0,0.531-0.531,1.595-1.064,2.126c-5.314,5.314-5.314,13.818,0,19.665c0.533,0.531,1.064,1.062,1.064,2.126v37.204
		c0,5.314-4.254,9.567-9.568,9.567H378.485c-5.315,0-9.567-4.253-9.567-9.567v-36.673c0-0.531,0.532-1.595,1.063-2.126
		c5.315-5.315,5.315-13.818,0-19.134c-0.531-0.531-1.063-1.062-1.063-2.126v-82.912c0-0.531,0.532-1.595,1.063-2.126
		c5.315-5.315,5.315-13.818,0-19.133c-0.531-0.531-1.063-1.063-1.063-2.126v-73.877c0-1.063,0.532-1.595,1.063-2.127
		c2.658-2.657,4.252-5.846,4.252-9.566s-1.594-6.909-4.252-9.566c-0.531-0.531-1.063-1.063-1.063-2.126v-47.834
		c0-11.693,7.972-21.26,19.666-23.386l37.204-6.909c5.315-1.063,10.098-1.595,15.414-2.658c-2.126,5.315-3.189,10.63-3.189,16.477
		c0,8.504,2.657,16.477,6.909,23.386c-15.944,7.972-28.7,20.729-36.141,36.673c-11.161-2.657-17.539-5.315-17.539-5.315
		c-2.657-1.062-5.847,0-6.909,3.189c-1.063,2.657,0,5.846,3.189,6.909c2.125,1.063,39.861,15.413,91.948,15.413
		c27.105,0,57.932-3.721,90.885-15.413c2.656-1.063,4.252-4.252,3.188-6.909c-1.062-2.657-4.25-4.252-6.908-3.189
		c-5.314,1.595-10.1,3.189-14.883,4.783c-7.971-15.412-20.195-28.169-35.609-35.609c4.252-6.909,6.91-14.882,6.91-23.386
		c0-5.846-1.062-11.692-3.189-16.476c5.314,0.531,10.631,1.595,15.414,2.657l37.203,6.909c11.162,2.126,19.666,12.225,19.666,23.386
		v46.771H591.082z"/>
	<path fill="#D99054" d="M454.488,424.83c-23.917-11.693-46.771-0.531-47.834,0c-2.657,1.063-3.72,4.253-2.657,6.91
		c1.063,2.657,4.252,3.72,6.91,2.657c0,0,19.665-9.035,38.799,0c0.531,0.53,1.594,0.53,2.126,0.53c2.125,0,3.721-1.062,4.784-3.188
		C458.209,429.083,457.146,425.894,454.488,424.83z"/>
	<path fill="#D99054" d="M553.346,424.83c-23.918-11.693-46.771-0.531-47.834,0c-2.658,1.063-3.721,4.253-2.658,6.91
		c1.064,2.657,4.252,3.72,6.91,2.657c0,0,19.133-9.035,38.799,0c0.531,0.53,1.594,0.53,2.125,0.53c2.127,0,3.721-1.062,4.783-3.188
		C557.066,429.083,556.002,425.894,553.346,424.83z"/>
	<path fill="#D99054" d="M415.69,305.777h129.152c3.188,0,5.314-2.126,5.314-5.315c0-3.188-2.127-5.314-5.314-5.314H415.69
		c-3.189,0-5.315,2.126-5.315,5.314C410.375,303.651,412.5,305.777,415.69,305.777z"/>
</g>
</svg>
