<?xml version="1.0" encoding="utf-8"?>
<!-- Generator: Adobe Illustrator 16.0.4, SVG Export Plug-In . SVG Version: 6.00 Build 0)  -->
<!DOCTYPE svg PUBLIC "-//W3C//DTD SVG 1.1//EN" "http://www.w3.org/Graphics/SVG/1.1/DTD/svg11.dtd">
<svg version="1.1" id="Layer_1" xmlns="http://www.w3.org/2000/svg" xmlns:xlink="http://www.w3.org/1999/xlink" x="0px" y="0px"
	 width="400px" height="400px" viewBox="280 80 400 400" enable-background="new 280 80 400 400" xml:space="preserve">
<g>
	<path fill="#D99054" d="M642.96,340.48V255.36c0-89.6-73.36-162.96-162.96-162.96c-89.6,0-162.96,72.8-162.96,162.96v85.121
		c-16.8,2.239-30.24,16.8-30.24,34.72v57.68c0,19.04,15.68,34.72,34.72,34.72h0.56l0,0h29.12l0,0h28.56l0,0h28.561l0,0h28.56l0,0
		h28.56l0,0H494l0,0h28.56l0,0h28.561l0,0h28.56l0,0h28.561l0,0h28.56l0,0h0.56c19.041,0,34.721-15.68,34.721-34.72V375.2
		C673.2,357.28,659.76,342.72,642.96,340.48z M327.68,351.12h17.36l0.56,105.28h-17.36L327.68,351.12z M356.24,351.12h17.36
		l0.56,105.28H356.8L356.24,351.12z M384.8,351.12h17.36l0.56,105.28h-17.36L384.8,351.12z M413.36,351.12h17.359l0.561,105.28
		h-17.36L413.36,351.12z M441.92,351.12h17.36l0.56,105.28H442.48L441.92,351.12z M470.48,351.12h17.359L488.4,456.4h-17.36
		L470.48,351.12z M499.6,351.12h17.36l0.56,105.28H500.16L499.6,351.12z M528.16,351.12h17.359l0.561,105.28h-17.36L528.16,351.12z
		 M556.72,351.12h17.36l0.56,105.28H557.28L556.72,351.12z M585.28,351.12h17.359L603.2,456.4h-17.36L585.28,351.12z M613.84,351.12
		h17.36l0.56,105.28H614.4L613.84,351.12z M328.24,255.36c0-83.44,68.319-151.76,151.76-151.76s151.76,68.32,151.76,151.76v84.56
		h-23.52l0,0H579.68l0,0h-28.56l0,0h-28.56l0,0H494l0,0h-28.56l0,0H436.88l0,0h-28.56l0,0H379.2l0,0h-28.56l0,0h-22.4V255.36z
		 M298,432.88V375.2c0-11.2,7.84-20.72,18.48-22.96l0.56,104.16C306.4,454.16,298,444.08,298,432.88z M662,432.88
		c0,11.2-7.84,20.72-18.48,22.96L642.4,351.68C653.6,353.92,662,363.44,662,375.2V432.88z"/>
	<path fill="#D99054" d="M473.28,182.56c1.12,1.12,2.239,1.68,3.92,1.68c1.68,0,2.8-0.56,3.92-1.68l21.28-21.28
		c2.239-2.24,2.239-5.6,0-7.84c-2.24-2.24-5.601-2.24-7.841,0l-16.8,16.8l-16.8-16.8c-2.24-2.24-5.6-2.24-7.84,0
		c-2.24,2.24-2.24,5.6,0,7.84L473.28,182.56z"/>
	<path fill="#D99054" d="M429.6,245.28c1.12,1.12,2.24,1.68,3.92,1.68c1.681,0,2.801-0.56,3.921-1.68L458.72,224
		c2.24-2.24,2.24-5.6,0-7.84c-2.239-2.24-5.6-2.24-7.84,0l-16.8,16.8l-16.8-16.8c-2.24-2.24-5.601-2.24-7.84,0
		c-2.24,2.24-2.24,5.6,0,7.84L429.6,245.28z"/>
	<path fill="#D99054" d="M496.24,216.16c-2.24,2.24-2.24,5.6,0,7.84l21.279,21.28c1.12,1.12,2.24,1.68,3.921,1.68
		c1.68,0,2.8-0.56,3.92-1.68L546.64,224c2.24-2.24,2.24-5.6,0-7.84c-2.239-2.24-5.6-2.24-7.84,0l-16.8,16.8l-16.8-16.8
		C502.4,213.92,498.48,213.92,496.24,216.16z"/>
	<path fill="#D99054" d="M387.6,306.32c1.12,1.12,2.8,1.68,3.92,1.68s2.8-0.56,3.92-1.68l21.28-21.28c2.24-2.24,2.24-5.6,0-7.84
		c-2.239-2.24-5.6-2.24-7.84,0l-16.8,16.8l-16.8-16.8c-2.24-2.24-5.6-2.24-7.84,0c-2.24,2.24-2.24,5.6,0,7.84L387.6,306.32z"/>
	<path fill="#D99054" d="M494.56,277.2l-16.8,16.8l-16.8-16.8c-2.24-2.24-5.6-2.24-7.84,0c-2.24,2.24-2.24,5.6,0,7.84l21.28,21.28
		c1.119,1.12,2.8,1.68,3.92,1.68c1.119,0,2.8-0.56,3.92-1.68l21.279-21.28c2.24-2.24,2.24-5.6,0-7.84
		C501.28,274.96,496.8,274.96,494.56,277.2z"/>
	<path fill="#D99054" d="M538.24,277.2c-2.24,2.24-2.24,5.6,0,7.84l21.279,21.28c1.12,1.12,2.801,1.68,3.921,1.68
		c1.119,0,2.8-0.56,3.92-1.68l21.279-21.28c2.24-2.24,2.24-5.6,0-7.84c-2.239-2.24-5.6-2.24-7.84,0L564,294l-16.8-16.8
		C543.84,274.96,540.48,274.96,538.24,277.2z"/>
</g>
</svg>
