<svg enable-background="new 0 0 200 133" height="133" viewBox="0 0 200 133" width="200" xmlns="http://www.w3.org/2000/svg"><path d="m193.345 103.788c-1.925-.985-4.337-.211-5.371 1.796l-1.522 3.034-82.954-98.558c-.039-.077-.146-.111-.186-.185-.121-.09-.167-.187-.231-.272-.079-.014-.099-.023-.116-.049-.07-.079-.205-.153-.343-.233-.069-.079-.206-.147-.282-.206-.138-.07-.274-.099-.353-.16-.145-.04-.292-.104-.375-.14-.139-.045-.274-.054-.35-.072-.152-.03-.277-.07-.429-.08-.11-.006-.219-.003-.357-.003-.124 0-.277-.005-.4.005-.111.009-.25.046-.361.071-.119.019-.269.034-.385.083-.11.03-.246.084-.354.127-.115.059-.263.097-.374.169-.104.057-.204.122-.305.199-.139.08-.247.157-.35.24-.019.025-.069.035-.085.049-.096.085-.174.182-.262.271-.04.074-.119.108-.189.186l-82.778 98.558-1.535-3.034c-.999-2.005-3.403-2.779-5.366-1.796-1.967 1.048-2.752 3.475-1.748 5.425l9.431 18.818c.7 1.366 2.1 2.188 3.562 2.188.61 0 1.221-.13 1.798-.453 1.959-.989 2.741-3.424 1.74-5.424l-4.062-8.121 20.59-24.268v37.419h35.368l22.052-58.982-.023 58.981h65.507v-37.419l20.659 24.27-4.077 8.121c-.976 2-.209 4.435 1.781 5.422.571.325 1.173.455 1.826.455 1.406 0 2.831-.822 3.55-2.188l9.435-18.818c.983-1.951.213-4.38-1.776-5.426zm-118.598 2c-1.508-4.88-4.102-9.972-8.511-13.91l23.24-25.592zm79.217-22.98v38.449h-49.519v-72.891c.007-.181-.01-.355-.022-.534-.011-.216-.034-.458-.134-.665-.028-.174-.057-.343-.099-.483-.139-.321-.302-.599-.486-.832-.057-.145-.18-.248-.248-.355-.278-.268-.507-.493-.824-.71-.02-.014-.035-.037-.055-.048-.039-.056-.148-.061-.188-.082-.334-.18-.685-.337-1.047-.427-.027-.007-.054-.019-.082-.024-.269-.048-.534-.085-.809-.085-.126 0-.277.038-.4.059-.069.004-.138.006-.176.014-.439.069-.831.192-1.203.381-.011.005-.019.009-.059.015-.458.252-.849.559-1.163.957l-40.074 44.141c-.817.904-1.188 2.151-1.014 3.32.168 1.236.855 2.252 1.88 2.919 10.409 6.347 10.674 21.359 10.56 25.33h-21.802v-38.79l53.457-63.54 53.757 63.88z" fill="#248a83"/></svg>