<svg enable-background="new 0 0 275 275" height="275" viewBox="0 0 275 275" width="275" xmlns="http://www.w3.org/2000/svg" xmlns:xlink="http://www.w3.org/1999/xlink"><filter id="a"><feGaussianBlur in="SourceAlpha" stdDeviation="2"/><feOffset dx="1" dy="1" result="offsetblur"/><feMerge><feMergeNode/><feMergeNode in="SourceGraphic"/></feMerge></filter><g filter="url(#a)"><path clip-rule="evenodd" d="m137.5 4.5c-73.454 0-133 59.546-133 133 0 73.455 59.546 133 133 133s133-59.545 133-133c0-73.454-59.546-133-133-133zm91.924 224.924c-24.554 24.555-57.199 38.076-91.924 38.076s-67.37-13.521-91.924-38.076c-24.554-24.553-38.076-57.199-38.076-91.924s13.522-67.37 38.076-91.924 57.199-38.076 91.924-38.076 67.37 13.522 91.924 38.076 38.076 57.199 38.076 91.924-13.522 67.371-38.076 91.924z" fill="#fff" fill-rule="evenodd"/></g><g fill="#fff" filter="url(#a)"><path d="m59.142 66.452 13.103 11.631-1.501 1.691-13.104-11.631z"/><path d="m76.896 73.021-11.024-13.617 1.919-1.554 9.941 3.356c2.302.778 4.251 1.575 6.027 2.445l.024-.053c-1.634-1.688-3.016-3.311-4.733-5.433l-4.613-5.697 1.657-1.341 11.025 13.617-1.778 1.439-9.918-3.409c-2.176-.747-4.345-1.566-6.226-2.484l-.044.069c1.491 1.636 2.857 3.239 4.689 5.502l4.711 5.818z"/><path d="m87.021 44.433 3.24 6.58 7.605-3.746-3.24-6.579 2.053-1.011 7.744 15.725-2.053 1.011-3.63-7.373-7.606 3.746 3.631 7.373-2.03 1-7.744-15.725z"/><path d="m112.142 47.159-.461 5.785-2.273.555 1.628-18.432 2.652-.647 9.963 15.603-2.348.573-3.125-4.91zm5.162-3.079-2.863-4.492c-.65-1.019-1.149-1.967-1.642-2.891l-.05.012c-.006 1.072-.031 2.175-.106 3.291l-.465 5.332z"/><path d="m128.328 32.235c.979-.245 2.533-.461 4.118-.521 2.261-.086 3.731.248 4.856 1.09.936.641 1.521 1.66 1.573 3.037.064 1.689-.996 3.213-2.815 3.959l.002.052c1.679.353 3.681 1.655 3.779 4.254.058 1.507-.496 2.673-1.347 3.564-1.179 1.164-3.134 1.759-5.993 1.868-1.559.06-2.758.001-3.516-.074zm2.535 7.086 2.053-.078c2.391-.091 3.747-1.392 3.682-3.082-.078-2.053-1.668-2.799-3.956-2.711-1.039.04-1.634.141-1.995.232zm.32 8.393c.445.061 1.095.062 1.901.031 2.338-.089 4.463-1.029 4.365-3.576-.091-2.391-2.182-3.3-4.65-3.206l-1.871.072z"/><path d="m150.21 32.481-1.903 17.422-2.248-.246 1.902-17.422z"/><path d="m162.324 36.64-5.162-1.33.48-1.863 12.563 3.236-.48 1.863-5.187-1.335-3.891 15.106-2.216-.571z"/><path d="m181.995 51.767-6.188-2.846-2.64 5.74 6.897 3.172-.793 1.724-8.953-4.118 7.323-15.92 8.598 3.955-.793 1.724-6.543-3.009-2.314 5.031 6.188 2.846z"/><path d="m184.243 62.35 10.347-14.141 1.993 1.458-.703 10.47c-.164 2.425-.436 4.513-.823 6.452l.058.01c1.214-2.011 2.431-3.762 4.042-5.965l4.329-5.917 1.721 1.259-10.347 14.141-1.846-1.351.76-10.46c.165-2.295.402-4.602.81-6.655l-.078-.025c-1.199 1.86-2.401 3.59-4.12 5.94l-4.421 6.042z"/><path d="m213.509 66.737-3.588-3.941 1.423-1.295 8.733 9.594-1.423 1.295-3.605-3.96-11.535 10.5-1.54-1.692z"/></g><g fill="#fff" filter="url(#a)"><path d="m52.377 192.711c-2.262.304-4.341-.808-5.522-2.86-1.628-2.829-.875-6.143 2.19-7.906 3.051-1.755 6.258-.738 7.894 2.104 1.292 2.247.966 4.503-.112 5.936l-.936-.92c.458-.744 1.128-2.403-.037-4.429-1.293-2.247-3.729-2.95-6.169-1.546-2.455 1.413-3.009 3.947-1.78 6.083.91 1.581 2.478 2.414 4.133 2.274z"/><path d="m56.595 198.82-3.101.893-.872-1.085 11.714-3.302.892 1.109-5.739 10.732-.873-1.085 1.537-2.837zm5.68.503c.527-.979 1.35-2.481 1.353-2.504l-.02-.025c-.022-.002-1.667.479-2.713.786l-3.066.885 2.938 3.653z"/><path d="m73.693 213.836c1.16-1.28 2.743-2.955 2.753-2.967l-.024-.021c-.022.001-.944.375-2.894 1.026l-3.956 1.316-.581-.526.9-4.021c.465-2.062.758-3.005.757-3.027l-.023-.021c-.011.012-1.534 1.74-2.694 3.021l-3.384 3.735-.96-.87 7.52-8.3 1.02.924-1.754 7.607.023.021 7.41-2.483.996.902-7.52 8.3-.972-.881z"/><path d="m85.695 215.048c2.167 1.452 2.8 3.322 1.526 5.223-1.239 1.848-3.236 2.011-5.403.559l-1.741-1.168-2.362 3.522-1.076-.722 6.238-9.304zm-3.208 4.842c1.555 1.043 2.807.899 3.635-.337.882-1.315.406-2.502-1.069-3.491l-1.768-1.185-2.566 3.827z"/><path d="m93.045 219.492 1.143.611-5.276 9.88-1.143-.61z"/><path d="m99.246 224.929-.029-.012c-.006.015-.449 1.216-.962 2.509l-2.368 5.959-1.204-.478 4.133-10.404 1.219.484 2.763 10.804.03.012c.006-.015.46-1.245.938-2.449l2.362-5.944 1.218.483-4.133 10.403-1.234-.489z"/><path d="m118.75 240.354c.278-1.249.336-1.433.367-1.573l-.031-.007c-.667.49-2.286 1.358-4.439.878-3.106-.692-5.103-3.496-4.338-6.931.769-3.449 3.698-5.123 6.914-4.407 2.498.557 3.974 2.312 4.299 4.088l-1.326.065c-.209-.751-.916-2.433-3.273-2.958-2.529-.563-4.722.75-5.331 3.481-.619 2.779.906 4.904 3.403 5.461 2.061.46 3.75-.359 4.369-1.074l.348-1.561-3.247-.724.265-1.187 4.433.988-1.273 5.713z"/><path d="m134.637 238.717c.154 1.598 1.493 2.295 3.205 2.268 1.631-.026 2.611-.698 2.59-2.042-.03-1.839-1.887-1.904-3.283-2.186-1.524-.327-3.484-.839-3.521-3.11-.032-1.95 1.39-3.077 3.74-3.115 2.079-.034 3.629.805 4.14 2.716l-1.242.356c-.324-1.227-1.247-1.932-2.894-1.905-1.631.026-2.436.743-2.418 1.879.025 1.487 1.438 1.784 3.041 2.078 1.669.293 3.725.787 3.764 3.25.035 2.111-1.419 3.206-3.914 3.247-1.887.03-4.056-.559-4.448-3.079z"/><path d="m155.743 235.711c.436 3.139-.899 5.053-3.769 5.45-2.886.4-4.674-1.081-5.109-4.22l-.896-6.469 1.316-.183.896 6.469c.334 2.41 1.481 3.463 3.622 3.166 2.155-.299 2.989-1.626 2.655-4.036l-.896-6.469 1.284-.178z"/><path d="m162.949 227.238c2.51-.709 4.345.02 4.966 2.221.604 2.141-.564 3.768-3.074 4.477l-2.017.569 1.152 4.08-1.247.353-3.045-10.777zm1.61 5.58c1.801-.509 2.503-1.556 2.099-2.987-.431-1.524-1.643-1.93-3.352-1.447l-2.048.578 1.253 4.435z"/><path d="m174.153 223.274c2.398-1.024 4.311-.537 5.21 1.566.874 2.045-.077 3.808-2.475 4.833l-1.928.823 1.666 3.897-1.191.51-4.4-10.297zm2.312 5.328c1.722-.735 2.283-1.862 1.698-3.23-.622-1.456-1.876-1.703-3.509-1.006l-1.956.836 1.811 4.236z"/><path d="m181.842 219.62 1.117-.656 5.057 8.607 5.09-2.989.615 1.048-6.207 3.646z"/><path d="m200.573 220.76-1.05.787-2.918-3.892-7.257-2.479 1.203-.902 4.217 1.438c.96.32 1.646.567 1.668.57l.025-.02c.003-.022-.058-.717-.086-1.715l-.191-4.496 1.14-.854.331 7.671z"/><path d="m218.201 198.981c1.047 2.027.699 4.358-.836 6.161-2.117 2.483-5.489 2.89-8.18.596-2.679-2.282-2.8-5.643-.673-8.14 1.681-1.972 3.915-2.423 5.625-1.89l-.552 1.19c-.854-.182-2.642-.255-4.156 1.523-1.681 1.972-1.524 4.502.619 6.328 2.155 1.836 4.728 1.506 6.325-.369 1.183-1.388 1.439-3.145.752-4.656z"/><path d="m218.451 187.836c1.406-2.254 4.146-2.959 6.455-1.52 2.282 1.423 2.868 4.202 1.463 6.457-1.406 2.254-4.16 2.951-6.442 1.528-2.309-1.44-2.881-4.21-1.476-6.465zm6.94 4.327c1.033-1.656.599-3.682-1.153-4.774-1.778-1.109-3.775-.6-4.808 1.057s-.612 3.674 1.166 4.783c1.752 1.092 3.761.591 4.795-1.066z"/><path d="m230.385 183.875c-.402-.197-.585-.625-.339-1.128.246-.504.696-.622 1.099-.425s.6.632.354 1.135c-.255.518-.712.614-1.114.418z"/></g><g filter="url(#a)"><path clip-rule="evenodd" d="m174.138 151.064c-.773-.4-1.725-.088-2.119.697l-.607 1.21-32.746-38.909c-.023-.027-.051-.047-.074-.072-.035-.035-.062-.074-.101-.106-.01-.008-.021-.014-.032-.022-.041-.033-.085-.061-.129-.09-.043-.029-.086-.061-.132-.085-.044-.023-.089-.039-.135-.059-.05-.021-.099-.043-.15-.059-.044-.014-.089-.02-.134-.029-.055-.011-.107-.023-.163-.029-.046-.004-.092-.002-.138-.002-.055 0-.108-.003-.163.003-.048.005-.093.017-.141.025-.052.01-.104.019-.155.033-.047.014-.09.034-.135.053-.051.021-.102.039-.148.064-.045.023-.085.054-.127.081-.045.029-.091.059-.133.094-.011.008-.021.014-.031.021-.039.032-.066.071-.101.105-.024.025-.052.046-.075.073l-32.68 38.909-.607-1.21c-.395-.785-1.344-1.097-2.119-.697s-1.084 1.361-.689 2.147l3.723 7.408c.279.553.832.872 1.406.872.24 0 .484-.056.713-.174.771-.401 1.078-1.362.685-2.148l-1.602-3.197 8.13-9.574v14.761h13.961l8.702-23.277-.015 23.277h25.859v-14.762l8.166 9.575-1.607 3.197c-.395.786-.086 1.747.689 2.147.229.119.474.175.715.175.573 0 1.127-.319 1.405-.872l3.724-7.408c.394-.784.085-1.746-.69-2.146zm-46.821.782c-.6-1.929-1.623-3.926-3.355-5.489l9.165-10.099zm31.267-9.066v15.185h-19.542v-28.784c.004-.07-.006-.137-.013-.206-.007-.091-.021-.18-.042-.266-.018-.066-.033-.13-.059-.194-.047-.117-.106-.227-.178-.328-.033-.049-.07-.092-.11-.137-.091-.104-.19-.198-.306-.274-.012-.008-.02-.021-.031-.028-.023-.015-.051-.018-.074-.03-.125-.07-.258-.127-.4-.161-.016-.004-.031-.011-.048-.015-.103-.021-.206-.032-.314-.032-.057 0-.109.012-.164.017-.022.003-.044.004-.067.008-.169.025-.327.077-.475.152-.006.003-.011.006-.016.009-.18.095-.338.222-.469.376l-15.819 17.429c-.319.353-.467.833-.399 1.307.066.476.341.895.746 1.143 4.112 2.513 4.215 8.436 4.165 10.017h-8.606v-15.312l21.105-25.092 21.226 25.22h-.11z" fill="#fff" fill-rule="evenodd"/></g><g filter="url(#a)"><path clip-rule="evenodd" d="m223.896 142.316 2.104-2.148-12-12.263v-5.701l9.896 10.113 2.104-2.149-13.511-13.807.006.017-13.495 13.789 2.104 2.149 9.896-10.112v5.701l-12 12.263 2.104 2.148 9.896-10.112v5.701l-12 12.263 2.104 2.148 9.896-10.112v16.435h3v-16.435l9.896 10.112 2.104-2.148-12-12.263v-5.701zm-150-9.999 2.104-2.15-13.511-13.807.006.017-13.495 13.79 2.104 2.149 9.896-10.112v5.701l-12 12.263 2.104 2.148 9.896-10.112v5.701l-12 12.263 2.104 2.148 9.896-10.112v16.435h3v-16.435l9.896 10.112 2.104-2.148-12-12.263v-5.701l9.896 10.112 2.104-2.148-12-12.263v-5.701z" fill="#fff" fill-rule="evenodd"/></g></svg>